HIERARCHY
ROOT hip
{
	OFFSET 0.000000 0.000000 0.000000 
	CHANNELS 6 Xposition Yposition Zposition Xrotation Zrotation Yrotation
	JOINT abdomen
	{
		OFFSET 0.000000 3.402643 0.000000 
		CHANNELS 3 Xrotation Zrotation Yrotation
		JOINT chest
		{
			OFFSET 0.000000 8.438565 -0.680529 
			CHANNELS 3 Xrotation Zrotation Yrotation
			JOINT neck
			{
				OFFSET 0.000000 10.207942 -0.272212 
				CHANNELS 3 Xrotation Zrotation Yrotation
				JOINT head
				{
					OFFSET 0.000000 3.130431 0.000000 
					CHANNELS 3 Xrotation Zrotation Yrotation
					End Site
					{
						OFFSET 0.000000 3.130435 0.000000 
					}
				}
			}
			JOINT lCollar
			{
				OFFSET 3.470700 6.669187 -0.816635 
				CHANNELS 3 Yrotation Zrotation Xrotation
				JOINT lShldr
				{
					OFFSET 3.198488 0.000000 0.000000 
					CHANNELS 3 Zrotation Yrotation Xrotation
					JOINT lForeArm
					{
						OFFSET 10.139888 0.000000 0.000000 
						CHANNELS 3 Yrotation Zrotation Xrotation
						JOINT lHand
						{
							OFFSET 8.370511 0.000000 0.000000 
							CHANNELS 3 Zrotation Yrotation Xrotation
							End Site
							{
								OFFSET 4.083176 0.000000 0.000000 
							}
						}
					}
				}
			}
			JOINT rCollar
			{
				OFFSET -3.470700 6.669187 -0.816635 
				CHANNELS 3 Yrotation Zrotation Xrotation
				JOINT rShldr
				{
					OFFSET -3.198488 0.000000 0.000000 
					CHANNELS 3 Zrotation Yrotation Xrotation
					JOINT rForeArm
					{
						OFFSET -10.139888 0.000000 0.000000 
						CHANNELS 3 Yrotation Zrotation Xrotation
						JOINT rHand
						{
							OFFSET -8.370511 0.000000 0.000000 
							CHANNELS 3 Zrotation Yrotation Xrotation
							End Site
							{
								OFFSET -4.083176 0.000000 0.000000 
							}
						}
					}
				}
			}
		}
	}
	JOINT lThigh
	{
		OFFSET 5.308129 -1.633274 1.361059 
		CHANNELS 3 Xrotation Zrotation Yrotation
		JOINT lShin
		{
			OFFSET -2.041588 -20.007561 0.000000 
			CHANNELS 3 Xrotation Zrotation Yrotation
			JOINT lFoot
			{
				OFFSET 0.000000 -19.190928 -1.224953 
				CHANNELS 3 Xrotation Yrotation Zrotation
				End Site
				{
					OFFSET 0.000000 -2.449906 4.627600 
				}
			}
		}
	}
	JOINT rThigh
	{
		OFFSET -5.308129 -1.633274 1.361059 
		CHANNELS 3 Xrotation Zrotation Yrotation
		JOINT rShin
		{
			OFFSET 2.041588 -20.007561 0.000000 
			CHANNELS 3 Xrotation Zrotation Yrotation
			JOINT rFoot
			{
				OFFSET 0.000000 -19.190928 -1.224953 
				CHANNELS 3 Xrotation Yrotation Zrotation
				End Site
				{
					OFFSET 0.000000 -2.449906 4.627600 
				}
			}
		}
	}
}
MOTION
Frames: 6
Frame Time: 0.011111
21.974268 52.065517 -32.613014 12.729028 6.773313 -5.970375 15.226493 3.510098 5.073385 -20.514568 -1.706846 1.006689 -10.806767 -5.750782 -4.401691 16.183435 -1.961688 -10.663221 -13.725516 -13.189672 -3.762996 -56.994335 -8.944940 53.504787 -86.686752 2.112540 31.814348 8.524705 12.647240 -27.386120 8.354301 9.292459 -1.514610 50.863712 40.957569 -10.898762 84.768944 -3.173579 26.246323 -8.534408 -12.637552 72.669785 -7.348252 1.600091 0.445974 30.793272 -5.283797 -4.961731 -24.961658 -6.626642 -5.361360 -40.218117 -16.138039 -14.001024 58.782433 2.871408 8.022449 -24.206665 -15.005884 -3.306517 
22.286428 52.103817 -32.307552 13.168880 5.584793 -7.089074 14.504709 5.489558 5.673815 -19.791044 -2.237069 0.988177 -10.658165 -6.051396 -4.755094 15.882927 -1.596659 -11.370318 -13.725516 -13.189672 -3.762996 -56.738411 -9.809623 53.933262 -86.696114 2.131583 31.832899 8.524705 12.647240 -27.347059 8.354301 9.292459 -1.514610 49.062832 42.494186 -11.673992 84.032310 -3.889037 25.459179 -8.534408 -12.637552 73.118996 -7.172666 2.839736 1.189601 30.193613 -5.328254 -4.851064 -25.099653 -6.811417 -5.471994 -38.767941 -14.745174 -18.331919 55.366573 3.242203 7.705339 -25.925627 -16.888519 -4.566503 
22.538906 52.103180 -31.986134 13.763055 4.780645 -8.301642 13.530039 6.879498 6.201514 -18.989258 -2.525571 1.008055 -10.645268 -6.257450 -5.065112 15.730962 -1.429122 -12.028827 -13.725516 -13.189672 -3.762996 -56.542412 -10.617190 54.283871 -86.697067 2.131994 31.842636 8.524705 12.647240 -27.366587 8.354301 9.292459 -1.514610 47.417934 43.877274 -12.575784 83.153229 -4.611021 24.685408 -8.534408 -12.637552 73.451035 -7.229131 3.814148 2.102841 29.842381 -5.352717 -4.825712 -25.204414 -6.974875 -5.554105 -37.184643 -13.444763 -22.867756 51.797459 3.613439 7.365908 -27.395144 -17.895767 -5.515569 
22.762653 52.067436 -31.694717 14.121917 4.625209 -9.804986 12.953737 7.305295 6.796785 -18.608154 -2.546869 1.137325 -10.477911 -6.507033 -5.333255 15.571755 -1.195410 -12.577887 -13.725516 -13.189672 -3.762996 -56.518021 -11.121546 54.534565 -86.692520 2.122442 31.833542 8.524705 12.647240 -27.766983 8.354301 9.292459 -1.514610 46.077465 44.866634 -13.113084 82.310005 -5.199011 24.023083 -8.534408 -12.637552 74.300644 -7.103986 4.097948 3.371974 29.754282 -5.342936 -4.825172 -25.319361 -6.971949 -5.551505 -35.868271 -12.323580 -26.470650 48.675392 3.896483 7.035901 -30.037994 -17.989613 -6.675463 
23.018320 52.017319 -31.425327 13.980109 5.046732 -10.652586 12.959258 7.110468 6.767466 -18.637867 -2.370600 1.144422 -10.356063 -6.999966 -5.502825 15.556934 -0.800149 -12.986247 -13.725516 -13.189672 -3.762996 -56.715126 -11.403254 54.699631 -86.697662 2.131842 31.842632 8.524705 12.647240 -28.265026 8.354301 9.292459 -1.514610 44.844845 45.654102 -13.523312 81.456284 -5.727120 23.426140 -8.534408 -12.637552 74.320168 -6.743728 3.434889 4.149079 30.104000 -5.328176 -4.852898 -25.339838 -6.971883 -5.553197 -34.373058 -12.195012 -29.813082 45.960041 4.150150 6.745800 -30.161329 -19.912998 -7.446387 
23.236006 51.944866 -31.129444 13.629740 5.624068 -11.643938 13.169084 6.575952 6.745375 -18.707607 -1.696674 1.197952 -10.289151 -7.704922 -5.610995 15.580828 -0.696161 -13.366987 -13.725516 -13.189672 -3.762996 -57.328815 -11.624374 54.771778 -86.717064 2.170363 31.889488 8.524705 12.647240 -28.606825 8.354301 9.292459 -1.514610 43.434914 46.442249 -13.894815 80.695694 -6.144329 22.926517 -8.534408 -12.637552 73.841652 -6.179421 2.576987 4.949455 30.522705 -5.308733 -4.914605 -25.180431 -7.016786 -5.580129 -33.072582 -12.114882 -31.687672 44.254585 4.323099 6.550885 -32.497608 -20.228970 -8.730434 
